# xmcd
#
# Track frame offsets: 
#        182
#        18697
#        37222
#        55727
#        73935
#        90772
#
# Disc length: 1557 seconds
#
# Revision: 0
# Processed by: cddbd v1.5.2PL0 Copyright (c) Steve Scherf et al.
# Submitted via: ExactAudioCopy v0.99pb3
#
DISCID=4c061306
DTITLE=Vic The Kid - It's Christmas Time! (Maxi-Single)
DYEAR=1994
DGENRE=Christmas/Holiday
TTITLE0=It's Christmas Time! (Radio Mix)
TTITLE1=It's Christmas Time! (Bass Mix)
TTITLE2=It's Christmas Time! (Club Edit)
TTITLE3=It's Christmas Time! (Club Dub)
TTITLE4=I Like Salsa X-Mas Bonus
TTITLE5=It's Christmas Time! (Extended Club Mix)
EXTD=
EXTT0=
EXTT1=
EXTT2=
EXTT3=
EXTT4=
EXTT5=
PLAYORDER=
